<svg xmlns="http://www.w3.org/2000/svg" viewBox="0 0 1024 1024" role="img" aria-labelledby="title desc">
  <title id="title">Cyberpunk Panda Avatar</title>
  <desc id="desc">A neon cyberpunk panda avatar with visor, circuit accents, and futuristic lighting.</desc>
  <defs>
    <radialGradient id="bg" cx="50%" cy="42%" r="68%">
      <stop offset="0%" stop-color="#243b55"/>
      <stop offset="40%" stop-color="#111827"/>
      <stop offset="100%" stop-color="#05070d"/>
    </radialGradient>
    <linearGradient id="visor" x1="190" y1="420" x2="834" y2="420" gradientUnits="userSpaceOnUse">
      <stop offset="0%" stop-color="#00f5ff"/>
      <stop offset="52%" stop-color="#8b5cf6"/>
      <stop offset="100%" stop-color="#ff2bd6"/>
    </linearGradient>
    <linearGradient id="fur" x1="274" y1="194" x2="746" y2="830" gradientUnits="userSpaceOnUse">
      <stop offset="0%" stop-color="#ffffff"/>
      <stop offset="60%" stop-color="#e8edf7"/>
      <stop offset="100%" stop-color="#b9c3d6"/>
    </linearGradient>
    <filter id="glow" x="-60%" y="-60%" width="220%" height="220%">
      <feGaussianBlur stdDeviation="8" result="blur"/>
      <feColorMatrix in="blur" type="matrix" values="0 0 0 0 0.0 0 0 0 0 0.85 0 0 0 0 1 0 0 0 0.75 0"/>
      <feMerge>
        <feMergeNode/>
        <feMergeNode in="SourceGraphic"/>
      </feMerge>
    </filter>
    <filter id="pinkGlow" x="-60%" y="-60%" width="220%" height="220%">
      <feGaussianBlur stdDeviation="9" result="blur"/>
      <feColorMatrix in="blur" type="matrix" values="0 0 0 0 1 0 0 0 0 0.06 0 0 0 0 0.78 0 0 0 0.8 0"/>
      <feMerge>
        <feMergeNode/>
        <feMergeNode in="SourceGraphic"/>
      </feMerge>
    </filter>
    <clipPath id="avatarClip">
      <circle cx="512" cy="512" r="492"/>
    </clipPath>
  </defs>

  <g clip-path="url(#avatarClip)">
    <rect width="1024" height="1024" fill="url(#bg)"/>
    <g opacity="0.34" fill="none" stroke-linecap="round">
      <path d="M58 254h192l52 52h118" stroke="#00eaff" stroke-width="5"/>
      <path d="M724 158h102v86h150" stroke="#ff2bd6" stroke-width="5"/>
      <path d="M88 770h154l74-74h112" stroke="#ffb000" stroke-width="4"/>
      <path d="M710 796h126l58-58h92" stroke="#00eaff" stroke-width="4"/>
      <path d="M122 438h156m480 116h202M164 602h132m480-250h128" stroke="#6ee7ff" stroke-width="3"/>
      <circle cx="302" cy="306" r="9" fill="#00eaff"/>
      <circle cx="724" cy="158" r="9" fill="#ff2bd6"/>
      <circle cx="316" cy="696" r="7" fill="#ffb000"/>
      <circle cx="836" cy="796" r="7" fill="#00eaff"/>
    </g>

    <circle cx="216" cy="292" r="156" fill="#070a12"/>
    <circle cx="808" cy="292" r="156" fill="#070a12"/>
    <circle cx="230" cy="300" r="112" fill="#101520"/>
    <circle cx="794" cy="300" r="112" fill="#101520"/>
    <path d="M188 272c38-54 96-80 158-78" fill="none" stroke="#00eaff" stroke-width="10" stroke-linecap="round" opacity="0.75" filter="url(#glow)"/>
    <path d="M674 194c67-4 125 26 164 82" fill="none" stroke="#ff2bd6" stroke-width="10" stroke-linecap="round" opacity="0.75" filter="url(#pinkGlow)"/>

    <path d="M512 178c-184 0-334 142-334 348 0 228 152 365 334 365s334-137 334-365C846 320 696 178 512 178Z" fill="url(#fur)"/>
    <path d="M270 494c-34 88-19 214 44 293 38 47 88 76 147 88-66-52-104-134-104-230 0-72 20-126 54-172-50-11-99-3-141 21Z" fill="#0b0e16" opacity="0.97"/>
    <path d="M754 494c34 88 19 214-44 293-38 47-88 76-147 88 66-52 104-134 104-230 0-72-20-126-54-172 50-11 99-3 141 21Z" fill="#0b0e16" opacity="0.97"/>

    <path d="M192 470c44-54 138-85 242-78 38 2 64 17 75 44 11-27 38-42 78-44 104-7 198 24 242 78-10 60-44 106-101 137-86 47-181 35-219-31-38 66-133 78-219 31-57-31-91-77-98-137Z" fill="#07111a" stroke="url(#visor)" stroke-width="18" filter="url(#glow)"/>
    <path d="M237 464c56-28 141-36 210-18 24 6 38 24 45 54-62 20-156 18-226-10-18-7-27-15-29-26Z" fill="#00eaff" opacity="0.42"/>
    <path d="M787 464c-56-28-141-36-210-18-24 6-38 24-45 54 62 20 156 18 226-10 18-7 27-15 29-26Z" fill="#ff2bd6" opacity="0.42"/>
    <path d="M267 520c55 24 140 26 211 8m279-8c-55 24-140 26-211 8" fill="none" stroke="#e7faff" stroke-width="5" opacity="0.58"/>
    <path d="M396 422l42 110m190-110-42 110" stroke="#ffffff" stroke-width="3" opacity="0.38"/>

    <path d="M448 638c0-34 28-58 64-58s64 24 64 58c0 30-28 52-64 52s-64-22-64-52Z" fill="#10131b"/>
    <path d="M478 625c12-13 55-13 68 0" stroke="#f4f7fb" stroke-width="6" stroke-linecap="round" opacity="0.34"/>
    <path d="M512 690v46" stroke="#141820" stroke-width="10" stroke-linecap="round"/>
    <path d="M438 744c44 42 104 42 148 0" fill="none" stroke="#141820" stroke-width="12" stroke-linecap="round"/>
    <path d="M328 702c38 65 106 104 184 104s146-39 184-104" fill="none" stroke="#c9d4e5" stroke-width="7" opacity="0.3"/>

    <g fill="none" stroke-linecap="round" stroke-linejoin="round">
      <path d="M271 645h-60v-84" stroke="#00eaff" stroke-width="12" filter="url(#glow)"/>
      <path d="M753 645h60v-84" stroke="#ff2bd6" stroke-width="12" filter="url(#pinkGlow)"/>
      <path d="M217 561h-42v-42h-54" stroke="#00eaff" stroke-width="5" opacity="0.8"/>
      <path d="M807 561h42v-42h54" stroke="#ff2bd6" stroke-width="5" opacity="0.8"/>
      <circle cx="121" cy="519" r="10" fill="#00eaff"/>
      <circle cx="903" cy="519" r="10" fill="#ff2bd6"/>
    </g>

    <path d="M272 816c68 82 148 122 240 122s172-40 240-122c-44 108-124 174-240 174S316 924 272 816Z" fill="#080c14"/>
    <path d="M334 820c52 57 111 86 178 86s126-29 178-86" fill="none" stroke="#00eaff" stroke-width="6" opacity="0.46" filter="url(#glow)"/>
    <path d="M390 858h244" stroke="#ff2bd6" stroke-width="5" opacity="0.5" filter="url(#pinkGlow)"/>

    <circle cx="512" cy="512" r="490" fill="none" stroke="#00eaff" stroke-width="8" opacity="0.35"/>
    <circle cx="512" cy="512" r="472" fill="none" stroke="#ff2bd6" stroke-width="3" opacity="0.4"/>
  </g>
</svg>
