<svg xmlns="http://www.w3.org/2000/svg" viewBox="0 0 1400 900" role="img" aria-labelledby="title desc">
  <title id="title">可爱的小缅因猫</title>
  <desc id="desc">一只毛茸茸的小缅因猫坐在晨光窗边。</desc>
  <defs>
    <linearGradient id="sky" x1="0" x2="1" y1="0" y2="1">
      <stop offset="0" stop-color="#a9d8ff"/>
      <stop offset=".52" stop-color="#f9d9bd"/>
      <stop offset="1" stop-color="#fff4cf"/>
    </linearGradient>
    <linearGradient id="fur" x1=".2" x2=".85" y1=".05" y2="1">
      <stop offset="0" stop-color="#f8e4bf"/>
      <stop offset=".48" stop-color="#b6815d"/>
      <stop offset="1" stop-color="#554137"/>
    </linearGradient>
    <linearGradient id="ruff" x1=".2" x2=".8" y1="0" y2="1">
      <stop offset="0" stop-color="#fff1d3"/>
      <stop offset="1" stop-color="#c49468"/>
    </linearGradient>
    <filter id="soft" x="-20%" y="-20%" width="140%" height="140%">
      <feDropShadow dx="0" dy="24" stdDeviation="24" flood-color="#50352b" flood-opacity=".28"/>
    </filter>
  </defs>
  <rect width="1400" height="900" fill="url(#sky)"/>
  <circle cx="1120" cy="170" r="116" fill="#fff0a4" opacity=".85"/>
  <path d="M0 612c148-82 268-46 386-12 132 38 258 74 429-8 210-101 392-76 585 26v282H0z" fill="#79a889" opacity=".75"/>
  <path d="M0 704c175-70 330-49 477-18 166 35 317 78 500 7 170-66 303-68 423-32v239H0z" fill="#f7efe2"/>
  <g opacity=".42" stroke="#ffffff" stroke-width="18">
    <path d="M188 126v448M390 94v496M592 116v438M794 93v488M996 122v404"/>
    <path d="M112 258h990M146 444h916"/>
  </g>
  <g transform="translate(726 172)" filter="url(#soft)">
    <path d="M212 180c42-91 96-122 156-150 3 84-3 148-29 207z" fill="#6b4a3c"/>
    <path d="M268 168c28-48 55-70 86-90-1 45-7 83-24 124z" fill="#f0a89a"/>
    <path d="M-3 180C-45 89-99 58-159 30c-3 84 3 148 29 207z" fill="#6b4a3c"/>
    <path d="M-59 168c-28-48-55-70-86-90 1 45 7 83 24 124z" fill="#f0a89a"/>
    <ellipse cx="105" cy="346" rx="260" ry="283" fill="url(#fur)"/>
    <path d="M-105 332c46 135 92 214 210 232 118-18 164-97 210-232 4 165-62 312-210 326-148-14-214-161-210-326z" fill="url(#ruff)" opacity=".95"/>
    <path d="M-91 282c42-92 113-143 196-143s154 51 196 143c-20 101-84 168-196 168S-71 383-91 282z" fill="#8d664d"/>
    <path d="M-38 257c20-42 58-70 100-80-15 54-43 86-83 102z" fill="#e6c097" opacity=".8"/>
    <path d="M248 257c-20-42-58-70-100-80 15 54 43 86 83 102z" fill="#e6c097" opacity=".8"/>
    <ellipse cx="16" cy="314" rx="39" ry="44" fill="#17382f"/>
    <ellipse cx="194" cy="314" rx="39" ry="44" fill="#17382f"/>
    <circle cx="29" cy="296" r="12" fill="#f8fff7"/>
    <circle cx="207" cy="296" r="12" fill="#f8fff7"/>
    <path d="M96 361c8-10 22-10 30 0-3 17-8 24-15 24s-12-7-15-24z" fill="#6a3d42"/>
    <path d="M111 385c-8 22-27 30-49 20M111 385c8 22 27 30 49 20" fill="none" stroke="#4a302b" stroke-width="8" stroke-linecap="round"/>
    <g stroke="#2f2724" stroke-width="6" stroke-linecap="round" opacity=".78">
      <path d="M67 368c-74-18-124-9-177 10"/>
      <path d="M71 393c-71 4-121 25-164 57"/>
      <path d="M143 368c74-18 124-9 177 10"/>
      <path d="M139 393c71 4 121 25 164 57"/>
    </g>
    <g fill="#4f3b34" opacity=".42">
      <path d="M-64 218c38-32 74-48 109-54-8 21-21 41-43 62z"/>
      <path d="M274 218c-38-32-74-48-109-54 8 21 21 41 43 62z"/>
      <path d="M-3 484c16 48 39 86 77 112-54-7-91-32-112-78z"/>
      <path d="M213 484c-16 48-39 86-77 112 54-7 91-32 112-78z"/>
    </g>
  </g>
  <g transform="translate(140 622)">
    <rect x="0" y="38" width="290" height="58" rx="29" fill="#4b7460"/>
    <circle cx="92" cy="38" r="38" fill="#ef6f61"/>
    <circle cx="149" cy="38" r="38" fill="#ffd166"/>
    <circle cx="206" cy="38" r="38" fill="#5cb7b2"/>
    <path d="M98 150c56-34 122-26 174 18" fill="none" stroke="#d65d64" stroke-width="18" stroke-linecap="round"/>
  </g>
</svg>
